<svg width="513" height="144" viewBox="0 0 513 144" fill="none" xmlns="http://www.w3.org/2000/svg">
<path d="M42.912 71.728C46.496 72.368 49.536 74.256 52.032 77.392C54.528 80.528 55.776 84.08 55.776 88.048C55.776 91.44 54.88 94.512 53.088 97.264C51.36 99.952 48.832 102.096 45.504 103.696C42.176 105.232 38.304 106 33.888 106H7.20001V39.28H32.64C37.184 39.28 41.088 40.048 44.352 41.584C47.616 43.12 50.08 45.2 51.744 47.824C53.408 50.384 54.24 53.264 54.24 56.464C54.24 60.304 53.216 63.504 51.168 66.064C49.12 68.624 46.368 70.512 42.912 71.728ZM18.144 67.312H31.68C35.264 67.312 38.048 66.512 40.032 64.912C42.08 63.248 43.104 60.88 43.104 57.808C43.104 54.8 42.08 52.464 40.032 50.8C38.048 49.072 35.264 48.208 31.68 48.208H18.144V67.312ZM32.928 97.072C36.64 97.072 39.552 96.176 41.664 94.384C43.776 92.592 44.832 90.096 44.832 86.896C44.832 83.632 43.712 81.04 41.472 79.12C39.232 77.2 36.256 76.24 32.544 76.24H18.144V97.072H32.928ZM78.6128 34.96V106H67.6688V34.96H78.6128ZM140.885 53.104V106H129.941V99.76C128.213 101.936 125.941 103.664 123.125 104.944C120.373 106.16 117.429 106.768 114.293 106.768C110.133 106.768 106.389 105.904 103.061 104.176C99.7973 102.448 97.2053 99.888 95.2853 96.496C93.4293 93.104 92.5013 89.008 92.5013 84.208V53.104H103.349V82.576C103.349 87.312 104.533 90.96 106.901 93.52C109.269 96.016 112.501 97.264 116.597 97.264C120.693 97.264 123.925 96.016 126.293 93.52C128.725 90.96 129.941 87.312 129.941 82.576V53.104H140.885ZM203.805 78.256C203.805 80.24 203.677 82.032 203.421 83.632H163.005C163.325 87.856 164.893 91.248 167.709 93.808C170.525 96.368 173.981 97.648 178.077 97.648C183.965 97.648 188.125 95.184 190.557 90.256H202.365C200.765 95.12 197.853 99.12 193.629 102.256C189.469 105.328 184.285 106.864 178.077 106.864C173.021 106.864 168.477 105.744 164.445 103.504C160.477 101.2 157.341 98 155.037 93.904C152.797 89.744 151.677 84.944 151.677 79.504C151.677 74.064 152.765 69.296 154.941 65.2C157.181 61.04 160.285 57.84 164.253 55.6C168.285 53.36 172.893 52.24 178.077 52.24C183.069 52.24 187.517 53.328 191.421 55.504C195.325 57.68 198.365 60.752 200.541 64.72C202.717 68.624 203.805 73.136 203.805 78.256ZM192.381 74.8C192.317 70.768 190.877 67.536 188.061 65.104C185.245 62.672 181.757 61.456 177.597 61.456C173.821 61.456 170.589 62.672 167.901 65.104C165.213 67.472 163.613 70.704 163.101 74.8H192.381Z" fill="#A6A6A6"/>
<path d="M267.36 61.1999C270.827 61.1999 273.92 61.9199 276.64 63.3599C279.413 64.7999 281.573 66.9332 283.12 69.7599C284.72 72.5866 285.52 75.9999 285.52 79.9999V106H276.48V81.3599C276.48 77.4132 275.493 74.3999 273.52 72.3199C271.547 70.1866 268.853 69.1199 265.44 69.1199C262.027 69.1199 259.307 70.1866 257.28 72.3199C255.307 74.3999 254.32 77.4132 254.32 81.3599V106H245.28V81.3599C245.28 77.4132 244.293 74.3999 242.32 72.3199C240.347 70.1866 237.653 69.1199 234.24 69.1199C230.827 69.1199 228.107 70.1866 226.08 72.3199C224.107 74.3999 223.12 77.4132 223.12 81.3599V106H214V61.9199H223.12V66.9599C224.613 65.1466 226.507 63.7332 228.8 62.7199C231.093 61.7066 233.547 61.1999 236.16 61.1999C239.68 61.1999 242.827 61.9466 245.6 63.4399C248.373 64.9332 250.507 67.0932 252 69.9199C253.333 67.2532 255.413 65.1466 258.24 63.5999C261.067 61.9999 264.107 61.1999 267.36 61.1999ZM337.525 82.8799C337.525 84.5332 337.418 86.0266 337.205 87.3599H303.525C303.792 90.8799 305.098 93.7066 307.445 95.8399C309.792 97.9732 312.672 99.0399 316.085 99.0399C320.992 99.0399 324.458 96.9866 326.485 92.8799H336.325C334.992 96.9332 332.565 100.267 329.045 102.88C325.578 105.44 321.258 106.72 316.085 106.72C311.872 106.72 308.085 105.787 304.725 103.92C301.418 102 298.805 99.3332 296.885 95.9199C295.018 92.4532 294.085 88.4532 294.085 83.9199C294.085 79.3866 294.992 75.4132 296.805 71.9999C298.672 68.5332 301.258 65.8666 304.565 63.9999C307.925 62.1332 311.765 61.1999 316.085 61.1999C320.245 61.1999 323.952 62.1066 327.205 63.9199C330.458 65.7332 332.992 68.2932 334.805 71.5999C336.618 74.8532 337.525 78.6132 337.525 82.8799ZM328.005 79.9999C327.952 76.6399 326.752 73.9466 324.405 71.9199C322.058 69.8932 319.152 68.8799 315.685 68.8799C312.538 68.8799 309.845 69.8932 307.605 71.9199C305.365 73.8932 304.032 76.5866 303.605 79.9999H328.005ZM357.14 69.3599V93.7599C357.14 95.4132 357.513 96.6132 358.26 97.3599C359.06 98.0532 360.393 98.3999 362.26 98.3999H367.86V106H360.66C356.553 106 353.407 105.04 351.22 103.12C349.033 101.2 347.94 98.0799 347.94 93.7599V69.3599H342.74V61.9199H347.94V50.9599H357.14V61.9199H367.86V69.3599H357.14ZM385.386 68.3199C386.719 66.0799 388.479 64.3466 390.666 63.1199C392.906 61.8399 395.546 61.1999 398.586 61.1999V70.6399H396.266C392.692 70.6399 389.972 71.5466 388.106 73.3599C386.292 75.1732 385.386 78.3199 385.386 82.7999V106H376.266V61.9199H385.386V68.3199ZM411.609 56.0799C409.955 56.0799 408.569 55.5199 407.449 54.3999C406.329 53.2799 405.769 51.8932 405.769 50.2399C405.769 48.5866 406.329 47.1999 407.449 46.0799C408.569 44.9599 409.955 44.3999 411.609 44.3999C413.209 44.3999 414.569 44.9599 415.689 46.0799C416.809 47.1999 417.369 48.5866 417.369 50.2399C417.369 51.8932 416.809 53.2799 415.689 54.3999C414.569 55.5199 413.209 56.0799 411.609 56.0799ZM416.089 61.9199V106H406.969V61.9199H416.089ZM425.023 83.9199C425.023 79.3866 425.929 75.4132 427.743 71.9999C429.609 68.5332 432.169 65.8666 435.423 63.9999C438.676 62.1332 442.409 61.1999 446.623 61.1999C451.956 61.1999 456.356 62.4799 459.823 65.0399C463.343 67.5466 465.716 71.1466 466.943 75.8399H457.103C456.303 73.6532 455.023 71.9466 453.263 70.7199C451.503 69.4932 449.289 68.8799 446.623 68.8799C442.889 68.8799 439.903 70.2132 437.663 72.8799C435.476 75.4932 434.383 79.1732 434.383 83.9199C434.383 88.6666 435.476 92.3732 437.663 95.0399C439.903 97.7066 442.889 99.0399 446.623 99.0399C451.903 99.0399 455.396 96.7199 457.103 92.0799H466.943C465.663 96.5599 463.263 100.133 459.743 102.8C456.223 105.413 451.849 106.72 446.623 106.72C442.409 106.72 438.676 105.787 435.423 103.92C432.169 102 429.609 99.3332 427.743 95.9199C425.929 92.4532 425.023 88.4532 425.023 83.9199ZM492.031 106.72C488.565 106.72 485.445 106.107 482.671 104.88C479.951 103.6 477.791 101.893 476.191 99.7599C474.591 97.5732 473.738 95.1466 473.631 92.4799H483.071C483.231 94.3466 484.111 95.9199 485.711 97.1999C487.365 98.4266 489.418 99.0399 491.871 99.0399C494.431 99.0399 496.405 98.5599 497.791 97.5999C499.231 96.5866 499.951 95.3066 499.951 93.7599C499.951 92.1066 499.151 90.8799 497.551 90.0799C496.005 89.2799 493.525 88.3999 490.111 87.4399C486.805 86.5332 484.111 85.6532 482.031 84.7999C479.951 83.9466 478.138 82.6399 476.591 80.8799C475.098 79.1199 474.351 76.7999 474.351 73.9199C474.351 71.5732 475.045 69.4399 476.431 67.5199C477.818 65.5466 479.791 63.9999 482.351 62.8799C484.965 61.7599 487.951 61.1999 491.311 61.1999C496.325 61.1999 500.351 62.4799 503.391 65.0399C506.485 67.5466 508.138 70.9866 508.351 75.3599H499.231C499.071 73.3866 498.271 71.8132 496.831 70.6399C495.391 69.4666 493.445 68.8799 490.991 68.8799C488.591 68.8799 486.751 69.3332 485.471 70.2399C484.191 71.1466 483.551 72.3466 483.551 73.8399C483.551 75.0132 483.978 75.9999 484.831 76.7999C485.685 77.5999 486.725 78.2399 487.951 78.7199C489.178 79.1466 490.991 79.7066 493.391 80.3999C496.591 81.2532 499.205 82.1332 501.231 83.0399C503.311 83.8932 505.098 85.1732 506.591 86.8799C508.085 88.5866 508.858 90.8532 508.911 93.6799C508.911 96.1866 508.218 98.4266 506.831 100.4C505.445 102.373 503.471 103.92 500.911 105.04C498.405 106.16 495.445 106.72 492.031 106.72Z" fill="#F0F0F0"/>
</svg>
