<svg width="204" height="272" viewBox="0 0 204 272" fill="none" xmlns="http://www.w3.org/2000/svg">
<mask id="mask0_66_1547" style="mask-type:luminance" maskUnits="userSpaceOnUse" x="0" y="0" width="204" height="272">
<path d="M204 0H0V272H204V0Z" fill="white"/>
</mask>
<g mask="url(#mask0_66_1547)">
<mask id="mask1_66_1547" style="mask-type:luminance" maskUnits="userSpaceOnUse" x="0" y="0" width="203" height="272">
<path d="M0.75 0.942871H202.67V271.308H0.75V0.942871Z" fill="white"/>
</mask>
<g mask="url(#mask1_66_1547)">
<path fill-rule="evenodd" clip-rule="evenodd" d="M60.0701 110.777C57.0401 113.803 54.07 116.777 51.04 119.803C23.32 147.532 23.32 193.261 51.04 220.99C78.77 248.714 124.5 248.714 152.23 220.99C179.96 193.261 179.96 147.532 152.23 119.803C131.63 99.2089 111.04 78.6149 90.4501 58.0209C75.2101 42.7769 74.01 16.1829 89.26 0.942871C95.74 25.2139 114.61 40.6149 130.88 56.8339L173.04 98.9949C212.28 138.235 212.28 202.501 173.04 241.745C133.8 280.985 69.53 280.985 30.29 241.745C-8.95996 202.501 -8.95996 138.235 30.29 98.9949C40.23 89.0479 50.18 79.0999 60.12 69.1569C80.39 89.4279 100.66 109.693 120.99 130.016L131.53 140.558C147.79 156.829 147.79 183.907 131.53 200.178C115.26 216.449 88.18 216.449 71.91 200.178C57.21 185.475 55.7501 162.074 67.5901 145.641C74.2801 136.344 73.26 123.803 65.15 115.693C63.42 114.074 61.7501 112.454 60.0701 110.777Z" fill="#297CB4"/>
</g>
</g>
<path d="M118.64 168.057C118.64 177.427 111.05 185.021 101.68 185.021C92.3102 185.021 84.7202 177.427 84.7202 168.057C84.7202 158.688 92.3102 151.099 101.68 151.099C111.05 151.099 118.64 158.688 118.64 168.057ZM80.9102 168.057C80.9102 179.526 90.2102 188.828 101.68 188.828C113.15 188.828 122.45 179.526 122.45 168.057C122.45 156.589 113.15 147.287 101.68 147.287C90.2102 147.287 80.9102 156.589 80.9102 168.057Z" fill="#2E8FC7"/>
<path d="M112.49 168.058C112.49 174.026 107.65 178.865 101.68 178.865C95.7102 178.865 90.8701 174.026 90.8701 168.058C90.8701 162.089 95.7102 157.25 101.68 157.25C107.65 157.25 112.49 162.089 112.49 168.058ZM88.4502 168.058C88.4502 175.365 94.3702 181.292 101.68 181.292C108.99 181.292 114.91 175.365 114.91 168.058C114.91 160.75 108.99 154.823 101.68 154.823C94.3702 154.823 88.4502 160.75 88.4502 168.058Z" fill="#2E8FC7"/>
<mask id="mask2_66_1547" style="mask-type:luminance" maskUnits="userSpaceOnUse" x="26" y="92" width="152" height="152">
<path d="M26.02 92.396H177.02V243.396H26.02V92.396Z" fill="white"/>
</mask>
<g mask="url(#mask2_66_1547)">
<path d="M92.9003 197.307C92.3403 197.875 92.3403 198.797 92.9003 199.365C93.4703 199.932 94.3903 199.932 94.9603 199.365C95.4803 198.844 95.5203 198.026 95.0903 197.458L100.06 192.484V188.219H99.6703V192.323L94.8103 197.182C94.2403 196.745 93.4303 196.786 92.9003 197.307ZM98.3503 219.323V197.807L103.76 192.396V188.219H103.18V192.156L97.7703 197.563V219.563L101.48 223.281V239.375C100.42 239.516 99.6003 240.427 99.6003 241.531C99.6003 242.734 100.57 243.708 101.77 243.708C102.98 243.708 103.95 242.734 103.95 241.531C103.95 240.427 103.13 239.516 102.07 239.375V223.042L98.3503 219.323ZM91.2803 233.771C91.2803 232.729 92.1303 231.88 93.1703 231.88C94.2103 231.88 95.0603 232.729 95.0603 233.771C95.0603 234.813 94.2103 235.661 93.1703 235.661C92.1303 235.661 91.2803 234.813 91.2803 233.771ZM95.6403 233.771C95.6403 232.51 94.6903 231.464 93.4603 231.323V210.891L89.5303 206.964V196.646L96.3602 189.823V184.161C96.1602 184.099 95.9703 184.031 95.7703 183.964V189.583L88.9503 196.406V207.203L92.8802 211.13V231.323C91.6502 231.464 90.7003 232.51 90.7003 233.771C90.7003 235.13 91.8103 236.24 93.1703 236.24C94.5303 236.24 95.6403 235.13 95.6403 233.771ZM81.4902 203.698C81.4902 202.964 80.9403 202.354 80.2303 202.26V195.125L85.7003 189.651L85.3203 189.495L79.8403 194.964V202.26C79.1303 202.354 78.5903 202.964 78.5903 203.698C78.5903 204.5 79.2303 205.151 80.0403 205.151C80.8403 205.151 81.4902 204.5 81.4902 203.698ZM101 199.682V207.672C100.3 207.766 99.7502 208.37 99.7502 209.109C99.7502 209.911 100.4 210.563 101.2 210.563C102 210.563 102.65 209.911 102.65 209.109C102.65 208.37 102.1 207.766 101.39 207.672V199.844L107.08 194.161V188.219H106.69V194L101 199.682ZM78.2603 220.026L83.4803 214.802V195.036L89.2203 189.307V181.089H90.8303C90.6003 180.906 90.3803 180.708 90.1703 180.51H89.2203V179.557C89.0103 179.339 88.8202 179.12 88.6302 178.896V180.51H80.4303L74.7003 186.24H54.9403L49.7103 191.469C48.8603 190.813 47.6303 190.875 46.8503 191.656C46.0003 192.51 46.0003 193.891 46.8503 194.74C47.7003 195.589 49.0803 195.589 49.9303 194.74C50.7103 193.958 50.7702 192.729 50.1202 191.875L55.1803 186.818H74.9403L80.6703 181.089H88.6302V189.068L82.9003 194.797V214.563L77.8503 219.62C76.9903 218.964 75.7702 219.026 74.9902 219.807C74.1402 220.656 74.1402 222.036 74.9902 222.891C75.8402 223.74 77.2203 223.74 78.0703 222.891C78.8503 222.109 78.9103 220.88 78.2603 220.026ZM127.01 121.625L122.81 125.823V137.344L117.6 142.557L118.18 142.802L123.39 137.583V126.063L127.42 122.031C128.27 122.688 129.5 122.625 130.28 121.844C131.13 120.995 131.13 119.615 130.28 118.76C129.43 117.911 128.05 117.911 127.2 118.76C126.42 119.547 126.36 120.771 127.01 121.625ZM167.39 161.438C168.44 161.438 169.28 162.286 169.28 163.328C169.28 164.37 168.44 165.214 167.39 165.214C166.35 165.214 165.5 164.37 165.5 163.328C165.5 162.286 166.35 161.438 167.39 161.438ZM131.57 159.464L135.72 163.615H164.95C165.09 164.839 166.13 165.797 167.39 165.797C168.75 165.797 169.86 164.688 169.86 163.328C169.86 161.969 168.75 160.859 167.39 160.859C166.13 160.859 165.09 161.813 164.95 163.036H135.96L131.82 158.885H115.94C116.07 159.078 116.19 159.271 116.3 159.464H131.57ZM117.6 193.557L122.81 198.771V210.297L127.01 214.49C126.36 215.344 126.42 216.573 127.2 217.354C128.05 218.203 129.43 218.203 130.28 217.354C131.13 216.5 131.13 215.12 130.28 214.271C129.5 213.49 128.27 213.427 127.42 214.083L123.39 210.052V198.531L118.18 193.318L117.6 193.557ZM144.45 181.495L143.2 182.74H129.33L123.53 176.948H116.12C116.05 177.078 115.96 177.208 115.88 177.333H123.37L129.16 183.13H143.36L144.72 181.766C145.3 182.203 146.11 182.161 146.63 181.641C147.2 181.073 147.2 180.151 146.63 179.583C146.07 179.016 145.14 179.016 144.58 179.583C144.06 180.104 144.01 180.922 144.45 181.495ZM172.99 167.661H156.66L152.95 171.375H131.43L126.02 165.969H121.84V166.547H125.78L131.19 171.958H153.19L156.9 168.24H172.99C173.14 169.307 174.05 170.13 175.15 170.13C176.35 170.13 177.33 169.156 177.33 167.953C177.33 166.75 176.35 165.771 175.15 165.771C174.05 165.771 173.14 166.594 172.99 167.661ZM123.27 184.021L123.12 184.411L128.59 189.88H135.88C135.98 190.594 136.59 191.141 137.32 191.141C138.12 191.141 138.77 190.49 138.77 189.688C138.77 188.885 138.12 188.234 137.32 188.234C136.59 188.234 135.98 188.786 135.88 189.495H128.75L123.27 184.021ZM158.54 176.557C158.54 177.599 157.69 178.443 156.65 178.443C155.61 178.443 154.76 177.599 154.76 176.557C154.76 175.516 155.61 174.667 156.65 174.667C157.69 174.667 158.54 175.516 158.54 176.557ZM154.2 176.266H144.51L140.59 180.193H130.27L123.45 173.37H121.84V173.948H123.2L130.02 180.776H140.83L144.75 176.844H154.2C154.35 178.068 155.39 179.026 156.65 179.026C158.01 179.026 159.12 177.917 159.12 176.557C159.12 175.193 158.01 174.089 156.65 174.089C155.39 174.089 154.35 175.042 154.2 176.266ZM108.29 223.026C108.29 224.068 107.44 224.917 106.4 224.917C105.36 224.917 104.51 224.068 104.51 223.026C104.51 221.984 105.36 221.141 106.4 221.141C107.44 221.141 108.29 221.984 108.29 223.026ZM110.84 198.193V182.328C110.65 182.453 110.46 182.573 110.26 182.688V197.953L106.11 202.104V220.578C104.88 220.724 103.93 221.766 103.93 223.026C103.93 224.391 105.04 225.495 106.4 225.495C107.76 225.495 108.87 224.391 108.87 223.026C108.87 221.766 107.91 220.724 106.69 220.578V202.344L110.84 198.193ZM115.85 214.193C115.85 214.885 115.28 215.453 114.59 215.453C113.89 215.453 113.33 214.885 113.33 214.193C113.33 213.5 113.89 212.938 114.59 212.938C115.28 212.938 115.85 213.5 115.85 214.193ZM114.41 180.51V179.255C114.29 179.396 114.16 179.536 114.03 179.677V180.51H113.19C112.98 180.708 112.76 180.906 112.53 181.089H114.03V194.161L118.24 198.375V205.589L114.4 209.432V212.563C113.58 212.656 112.95 213.354 112.95 214.193C112.95 215.099 113.69 215.839 114.59 215.839C115.5 215.839 116.24 215.099 116.24 214.193C116.24 213.354 115.6 212.656 114.78 212.563V209.594L118.63 205.75V198.214L114.41 194V181.089H122.69L128.42 186.818H148.18L153.24 191.875C152.59 192.729 152.65 193.958 153.43 194.74C154.28 195.589 155.66 195.589 156.51 194.74C157.36 193.891 157.36 192.51 156.51 191.656C155.73 190.875 154.5 190.813 153.65 191.469L148.43 186.24H128.66L122.93 180.51H114.41ZM147.71 142.307L143.68 146.333H132.15L126.94 151.547L127.18 152.13L132.39 146.911H143.91L148.11 142.714C148.97 143.37 150.19 143.307 150.97 142.526C151.83 141.677 151.83 140.297 150.97 139.448C150.12 138.594 148.74 138.594 147.89 139.448C147.11 140.229 147.05 141.453 147.71 142.307ZM87.4803 177.333C87.4003 177.208 87.3202 177.078 87.2402 176.948H79.8303L74.0303 182.74H60.1603L58.9103 181.495C59.3403 180.922 59.3003 180.104 58.7803 179.583C58.2203 179.016 57.3003 179.016 56.7303 179.583C56.1603 180.151 56.1603 181.073 56.7303 181.641C57.2503 182.161 58.0702 182.203 58.6302 181.766L60.0002 183.13H74.2003L79.9902 177.333H87.4803ZM147.82 153.875C148.51 153.875 149.08 154.443 149.08 155.135C149.08 155.828 148.51 156.396 147.82 156.396C147.12 156.396 146.56 155.828 146.56 155.135C146.56 154.443 147.12 153.875 147.82 153.875ZM113.33 121.922C113.33 121.229 113.89 120.661 114.59 120.661C115.28 120.661 115.85 121.229 115.85 121.922C115.85 122.615 115.28 123.182 114.59 123.182C113.89 123.182 113.33 122.615 113.33 121.922ZM114.41 155.313V142.115L118.63 137.901V130.37L114.78 126.521V123.552C115.6 123.458 116.24 122.766 116.24 121.922C116.24 121.016 115.5 120.276 114.59 120.276C113.69 120.276 112.95 121.016 112.95 121.922C112.95 122.766 113.58 123.458 114.4 123.552V126.682L118.24 130.526V137.74L114.03 141.958V155.313H112.86C113.01 155.438 113.15 155.568 113.29 155.698H114.03V156.438C114.16 156.578 114.29 156.719 114.41 156.859V155.698H127.78L132 151.484H139.21L143.06 155.328H146.18C146.28 156.146 146.97 156.781 147.82 156.781C148.72 156.781 149.46 156.042 149.46 155.135C149.46 154.229 148.72 153.49 147.82 153.49C146.97 153.49 146.28 154.125 146.18 154.943H143.22L139.37 151.099H131.84L127.62 155.313H114.41ZM66.0303 188.234C65.2403 188.234 64.5903 188.885 64.5903 189.688C64.5903 190.49 65.2403 191.141 66.0303 191.141C66.7703 191.141 67.3803 190.594 67.4803 189.88H74.7703L80.2402 184.411L80.0903 184.021L74.6102 189.495H67.4803C67.3803 188.786 66.7703 188.234 66.0303 188.234ZM77.2502 169.672L72.2803 174.641C71.7103 174.203 70.8902 174.245 70.3702 174.766C69.8102 175.333 69.8102 176.255 70.3702 176.823C70.9402 177.391 71.8603 177.391 72.4303 176.823C72.9503 176.302 72.9903 175.484 72.5603 174.917L77.4103 170.057H82.0002V169.672H77.2502ZM75.5803 162.651L69.8903 168.333H62.0703C61.9703 167.625 61.3702 167.073 60.6302 167.073C59.8302 167.073 59.1803 167.724 59.1803 168.526C59.1803 169.328 59.8302 169.979 60.6302 169.979C61.3702 169.979 61.9703 169.432 62.0703 168.719H70.0603L75.7402 163.036H82.0002V162.651H75.5803ZM86.9803 195.703L92.7703 189.911V182.495C92.6403 182.411 92.5203 182.328 92.3903 182.245V189.75L86.6003 195.542V209.74L87.9603 211.104C87.5203 211.672 87.5703 212.49 88.0903 213.01C88.6503 213.578 89.5703 213.578 90.1403 213.01C90.7103 212.443 90.7103 211.521 90.1403 210.953C89.6203 210.438 88.8103 210.391 88.2303 210.828L86.9803 209.578V195.703ZM90.1403 125.161C90.7103 124.594 90.7103 123.672 90.1403 123.104C89.5703 122.536 88.6503 122.536 88.0903 123.104C87.5703 123.625 87.5203 124.443 87.9603 125.01L86.6003 126.375V140.573L92.3903 146.365V153.87C92.5203 153.786 92.6403 153.703 92.7703 153.62V146.203L86.9803 140.411V126.536L88.2303 125.286C88.8103 125.724 89.6203 125.682 90.1403 125.161ZM99.6703 147.776H100.06V143.63L95.0903 138.661C95.5203 138.089 95.4803 137.276 94.9603 136.755C94.3903 136.188 93.4703 136.188 92.9003 136.755C92.3403 137.318 92.3403 138.24 92.9003 138.807C93.4303 139.328 94.2403 139.37 94.8103 138.932L99.6703 143.792V147.776ZM127.78 162.651H121.84V163.036H127.62L133.31 168.719H141.3C141.39 169.432 141.99 169.979 142.73 169.979C143.53 169.979 144.18 169.328 144.18 168.526C144.18 167.724 143.53 167.073 142.73 167.073C141.99 167.073 141.39 167.625 141.3 168.333H133.47L127.78 162.651ZM101.39 136.271V128.448C102.1 128.349 102.65 127.745 102.65 127.005C102.65 126.208 102 125.557 101.2 125.557C100.4 125.557 99.7502 126.208 99.7502 127.005C99.7502 127.745 100.3 128.349 101 128.448V136.432L106.69 142.115V151.417H107.08V141.958L101.39 136.271ZM121.84 169.672V170.057H125.95L130.81 174.917C130.37 175.484 130.41 176.302 130.93 176.823C131.5 177.391 132.42 177.391 132.98 176.823C133.55 176.255 133.55 175.333 132.98 174.766C132.46 174.245 131.64 174.203 131.08 174.641L126.11 169.672H121.84ZM76.4203 151.547L71.2103 146.333H59.6903L55.6503 142.307C56.3103 141.453 56.2503 140.229 55.4703 139.448C54.6203 138.594 53.2402 138.594 52.3802 139.448C51.5302 140.297 51.5302 141.677 52.3802 142.526C53.1602 143.307 54.3902 143.37 55.2502 142.714L59.4403 146.911H70.9703L76.1803 152.13L76.4203 151.547ZM35.9703 165.214C34.9303 165.214 34.0803 164.37 34.0803 163.328C34.0803 162.286 34.9303 161.438 35.9703 161.438C37.0103 161.438 37.8602 162.286 37.8602 163.328C37.8602 164.37 37.0103 165.214 35.9703 165.214ZM38.4103 163.036C38.2703 161.813 37.2303 160.859 35.9703 160.859C34.6103 160.859 33.5002 161.969 33.5002 163.328C33.5002 164.688 34.6103 165.797 35.9703 165.797C37.2303 165.797 38.2703 164.839 38.4103 163.615H67.6302L71.7803 159.464H87.0603C87.1803 159.271 87.3003 159.078 87.4103 158.885H71.5503L67.3903 163.036H38.4103ZM82.0002 166.547V165.969H77.3403L71.9303 171.375H50.4103L46.7003 167.661H30.3602C30.2202 166.594 29.3103 165.771 28.2103 165.771C27.0003 165.771 26.0303 166.75 26.0303 167.953C26.0303 169.156 27.0003 170.13 28.2103 170.13C29.3103 170.13 30.2202 169.307 30.3602 168.24H46.4603L50.1803 171.958H72.1803L77.5803 166.547H82.0002ZM44.8203 176.557C44.8203 175.516 45.6703 174.667 46.7103 174.667C47.7503 174.667 48.6003 175.516 48.6003 176.557C48.6003 177.599 47.7503 178.443 46.7103 178.443C45.6703 178.443 44.8203 177.599 44.8203 176.557ZM49.1603 176.844H58.6102L62.5303 180.776H73.3303L80.1503 173.948H82.0002V173.37H79.9103L73.0903 180.193H62.7703L58.8503 176.266H49.1603C49.0103 175.042 47.9703 174.089 46.7103 174.089C45.3503 174.089 44.2402 175.193 44.2402 176.557C44.2402 177.917 45.3503 179.026 46.7103 179.026C47.9703 179.026 49.0103 178.068 49.1603 176.844ZM93.1703 100.453C94.2103 100.453 95.0603 101.302 95.0603 102.344C95.0603 103.385 94.2103 104.234 93.1703 104.234C92.1303 104.234 91.2803 103.385 91.2803 102.344C91.2803 101.302 92.1303 100.453 93.1703 100.453ZM92.8802 104.792V124.984L88.9503 128.911V139.714L95.7703 146.531V152.156C95.9703 152.083 96.1602 152.016 96.3602 151.953V146.292L89.5303 139.469V129.151L93.4603 125.224V104.792C94.6903 104.651 95.6403 103.604 95.6403 102.344C95.6403 100.984 94.5303 99.8752 93.1703 99.8752C91.8103 99.8752 90.7003 100.984 90.7003 102.344C90.7003 103.604 91.6502 104.651 92.8802 104.792ZM85.3203 146.62L85.7003 146.464L80.2303 140.99V133.854C80.9403 133.76 81.4902 133.151 81.4902 132.417C81.4902 131.615 80.8403 130.964 80.0403 130.964C79.2303 130.964 78.5903 131.615 78.5903 132.417C78.5903 133.151 79.1303 133.76 79.8403 133.854V141.151L85.3203 146.62ZM99.6003 94.5892C99.6003 95.6932 100.42 96.5992 101.48 96.7452V112.833L97.7703 116.552V138.552L103.18 143.958V147.776H103.76V143.719L98.3503 138.313V116.792L102.07 113.073V96.7452C103.13 96.5992 103.95 95.6932 103.95 94.5892C103.95 93.3852 102.98 92.4062 101.77 92.4062C100.57 92.4062 99.6003 93.3852 99.6003 94.5892ZM108.29 113.089C108.29 114.13 107.44 114.974 106.4 114.974C105.36 114.974 104.51 114.13 104.51 113.089C104.51 112.047 105.36 111.198 106.4 111.198C107.44 111.198 108.29 112.047 108.29 113.089ZM103.93 113.089C103.93 114.349 104.88 115.391 106.11 115.536V134.01L110.26 138.167V153.427C110.46 153.547 110.65 153.661 110.84 153.786V137.922L106.69 133.776V115.536C107.91 115.391 108.87 114.349 108.87 113.089C108.87 111.729 107.76 110.62 106.4 110.62C105.04 110.62 103.93 111.729 103.93 113.089ZM55.5503 156.396C54.8503 156.396 54.2803 155.828 54.2803 155.135C54.2803 154.443 54.8503 153.875 55.5503 153.875C56.2403 153.875 56.8103 154.443 56.8103 155.135C56.8103 155.828 56.2403 156.396 55.5503 156.396ZM75.5803 155.698H88.6302V157.219C88.8202 156.995 89.0103 156.776 89.2203 156.557V155.698H90.0703C90.2103 155.568 90.3502 155.438 90.5002 155.313H89.2203V146.807L83.4803 141.078V121.313L78.2603 116.089C78.9103 115.234 78.8503 114.01 78.0703 113.224C77.2203 112.375 75.8402 112.375 74.9902 113.224C74.1402 114.078 74.1402 115.458 74.9902 116.307C75.7702 117.089 76.9903 117.151 77.8503 116.5L82.9003 121.557V141.318L88.6302 147.047V155.313H75.7402L71.5203 151.099H63.9902L60.1403 154.943H57.1803C57.0803 154.125 56.3803 153.49 55.5503 153.49C54.6403 153.49 53.9003 154.229 53.9003 155.135C53.9003 156.042 54.6403 156.781 55.5503 156.781C56.3803 156.781 57.0803 156.146 57.1803 155.328H60.3103L64.1503 151.484H71.3602L75.5803 155.698Z" fill="#2E8FC7"/>
</g>
<mask id="mask3_66_1547" style="mask-type:luminance" maskUnits="userSpaceOnUse" x="73" y="144" width="57" height="57">
<path d="M73.9102 144.761H129.91V200.761H73.9102V144.761Z" fill="white"/>
</mask>
<g mask="url(#mask3_66_1547)">
<path d="M129.43 172.516C129.43 173.427 129.38 174.334 129.29 175.24C129.2 176.146 129.07 177.042 128.89 177.933C128.72 178.823 128.49 179.709 128.23 180.578C127.97 181.448 127.66 182.302 127.31 183.141C126.97 183.98 126.58 184.802 126.15 185.605C125.72 186.407 125.25 187.183 124.75 187.938C124.24 188.698 123.7 189.427 123.12 190.125C122.55 190.828 121.94 191.506 121.3 192.146C120.65 192.787 119.98 193.401 119.28 193.974C118.58 194.552 117.85 195.094 117.09 195.599C116.33 196.105 115.56 196.568 114.75 197C113.95 197.427 113.13 197.818 112.29 198.162C111.45 198.511 110.6 198.818 109.73 199.084C108.86 199.344 107.97 199.568 107.08 199.745C106.19 199.922 105.3 200.052 104.39 200.141C103.48 200.23 102.58 200.276 101.67 200.276C100.76 200.276 99.8502 200.23 98.9502 200.141C98.0402 200.052 97.1401 199.922 96.2501 199.745C95.3601 199.568 94.4801 199.344 93.6101 199.084C92.7401 198.818 91.8802 198.511 91.0502 198.162C90.2102 197.818 89.3802 197.427 88.5802 197C87.7802 196.568 87.0001 196.105 86.2501 195.599C85.4901 195.094 84.7602 194.552 84.0602 193.974C83.3602 193.401 82.6802 192.787 82.0402 192.146C81.4002 191.506 80.7902 190.828 80.2102 190.125C79.6302 189.427 79.0902 188.698 78.5902 187.938C78.0802 187.183 77.6202 186.407 77.1902 185.605C76.7602 184.802 76.3701 183.98 76.0201 183.141C75.6801 182.302 75.3701 181.448 75.1101 180.578C74.8401 179.709 74.6202 178.823 74.4402 177.933C74.2602 177.042 74.1302 176.146 74.0502 175.24C73.9602 174.334 73.9102 173.427 73.9102 172.516C73.9102 171.61 73.9602 170.703 74.0502 169.797C74.1302 168.891 74.2602 167.995 74.4402 167.105C74.6202 166.214 74.8401 165.328 75.1101 164.459C75.3701 163.589 75.6801 162.735 76.0201 161.896C76.3701 161.058 76.7602 160.235 77.1902 159.433C77.6202 158.631 78.0802 157.855 78.5902 157.099C79.0902 156.339 79.6302 155.61 80.2102 154.912C80.7902 154.209 81.4002 153.532 82.0402 152.891C82.6802 152.25 83.3602 151.636 84.0602 151.063C84.7602 150.485 85.4901 149.943 86.2501 149.438C87.0001 148.933 87.7802 148.469 88.5802 148.037C89.3802 147.61 90.2102 147.219 91.0502 146.875C91.8802 146.526 92.7401 146.219 93.6101 145.953C94.4801 145.693 95.3601 145.469 96.2501 145.292C97.1401 145.115 98.0402 144.985 98.9502 144.896C99.8502 144.808 100.76 144.761 101.67 144.761C102.58 144.761 103.48 144.808 104.39 144.896C105.3 144.985 106.19 145.115 107.08 145.292C107.97 145.469 108.86 145.693 109.73 145.953C110.6 146.219 111.45 146.526 112.29 146.875C113.13 147.219 113.95 147.61 114.75 148.037C115.56 148.469 116.33 148.933 117.09 149.438C117.85 149.943 118.58 150.485 119.28 151.063C119.98 151.636 120.65 152.25 121.3 152.891C121.94 153.532 122.55 154.209 123.12 154.912C123.7 155.61 124.24 156.339 124.75 157.099C125.25 157.855 125.72 158.631 126.15 159.433C126.58 160.235 126.97 161.058 127.31 161.896C127.66 162.735 127.97 163.589 128.23 164.459C128.49 165.328 128.72 166.214 128.89 167.105C129.07 167.995 129.2 168.891 129.29 169.797C129.38 170.703 129.43 171.61 129.43 172.516Z" fill="white"/>
</g>
<path d="M101.42 175.934H94.1503L92.7603 179.289H89.0303L96.0303 163.601H99.6102L106.63 179.289H102.82L101.42 175.934ZM100.28 173.164L97.8003 167.164L95.3203 173.164H100.28Z" fill="black"/>
<path d="M108.25 163.601H111.9V179.289H108.25V163.601Z" fill="black"/>
</svg>
