<svg width="195" height="260" viewBox="0 0 195 260" fill="none" xmlns="http://www.w3.org/2000/svg">
<mask id="mask0_66_1947" style="mask-type:luminance" maskUnits="userSpaceOnUse" x="0" y="0" width="195" height="260">
<path d="M194.67 0H0V260H194.67V0Z" fill="white"/>
</mask>
<g mask="url(#mask0_66_1947)">
<mask id="mask1_66_1947" style="mask-type:luminance" maskUnits="userSpaceOnUse" x="0" y="0" width="195" height="260">
<path d="M0.162109 0.509766H194.4V259.895H0.162109V0.509766Z" fill="white"/>
</mask>
<g mask="url(#mask1_66_1947)">
<path fill-rule="evenodd" clip-rule="evenodd" d="M57.0941 105.874C54.1881 108.781 51.3331 111.63 48.4321 114.536C21.8331 141.135 21.8331 185.005 48.4321 211.604C75.0311 238.202 118.901 238.202 145.5 211.604C172.1 185.005 172.1 141.135 145.5 114.536C125.745 94.7808 105.99 75.0248 86.2351 55.2648C71.6101 40.6448 70.4691 15.1348 85.0941 0.509766C91.3131 23.7908 109.412 38.5717 125.021 54.1237L165.46 94.5718C203.11 132.218 203.11 193.869 165.46 231.515C127.818 269.161 66.1671 269.161 28.5211 231.515C-9.12488 193.869 -9.12488 132.218 28.5211 94.5718C38.0631 85.0308 47.6041 75.4888 57.1461 65.9468C76.5891 85.3948 96.0311 104.838 115.531 124.338L125.641 134.447C141.25 150.057 141.25 176.031 125.641 191.64C110.031 207.249 84.0571 207.249 68.4481 191.64C54.3441 177.536 52.9431 155.083 64.2971 139.322C70.7291 130.4 69.7451 118.374 61.9641 110.593C60.3071 109.041 58.6981 107.484 57.0941 105.874Z" fill="#ACADAE"/>
</g>
</g>
<mask id="mask2_66_1947" style="mask-type:luminance" maskUnits="userSpaceOnUse" x="70" y="139" width="54" height="54">
<path d="M70.3701 139.781H123.37V192.781H70.3701V139.781Z" fill="white"/>
</mask>
<g mask="url(#mask2_66_1947)">
<path d="M123.62 166.406C123.62 167.281 123.573 168.151 123.489 169.02C123.406 169.885 123.276 170.75 123.104 171.604C122.937 172.458 122.724 173.302 122.474 174.135C122.219 174.973 121.927 175.791 121.594 176.598C121.255 177.401 120.885 178.192 120.474 178.958C120.062 179.729 119.614 180.473 119.13 181.203C118.646 181.927 118.13 182.625 117.573 183.302C117.021 183.973 116.437 184.619 115.818 185.234C115.203 185.854 114.557 186.437 113.885 186.989C113.208 187.541 112.51 188.062 111.786 188.546C111.062 189.031 110.312 189.479 109.542 189.89C108.776 190.302 107.989 190.671 107.182 191.005C106.375 191.338 105.557 191.635 104.724 191.885C103.885 192.14 103.042 192.354 102.187 192.52C101.333 192.692 100.469 192.817 99.6041 192.906C98.7341 192.989 97.8641 193.031 96.9951 193.031C96.1201 193.031 95.2501 192.989 94.3851 192.906C93.5151 192.817 92.6561 192.692 91.7971 192.52C90.9431 192.354 90.0991 192.14 89.2651 191.885C88.4321 191.635 87.6091 191.338 86.8021 191.005C86.0001 190.671 85.2131 190.302 84.4431 189.89C83.6721 189.479 82.9271 189.031 82.2031 188.546C81.4741 188.062 80.7761 187.541 80.1041 186.989C79.4271 186.437 78.7811 185.854 78.1671 185.234C77.5521 184.619 76.9631 183.973 76.4111 183.302C75.8591 182.625 75.3381 181.927 74.8541 181.203C74.3701 180.473 73.9221 179.729 73.5101 178.958C73.0991 178.192 72.7291 177.401 72.3961 176.598C72.0621 175.791 71.7651 174.973 71.5151 174.135C71.2601 173.302 71.0521 172.458 70.8801 171.604C70.7081 170.75 70.5831 169.885 70.4951 169.02C70.4111 168.151 70.3701 167.281 70.3701 166.406C70.3701 165.536 70.4111 164.666 70.4951 163.796C70.5831 162.932 70.7081 162.067 70.8801 161.213C71.0521 160.359 71.2601 159.515 71.5151 158.682C71.7651 157.843 72.0621 157.026 72.3961 156.218C72.7291 155.416 73.0991 154.625 73.5101 153.859C73.9221 153.088 74.3701 152.343 74.8541 151.614C75.3381 150.89 75.8591 150.192 76.4111 149.515C76.9631 148.843 77.5521 148.197 78.1671 147.583C78.7811 146.963 79.4271 146.38 80.1041 145.828C80.7761 145.276 81.4741 144.755 82.2031 144.27C82.9271 143.786 83.6721 143.338 84.4431 142.927C85.2131 142.515 86.0001 142.145 86.8021 141.812C87.6091 141.479 88.4321 141.182 89.2651 140.932C90.0991 140.677 90.9431 140.463 91.7971 140.296C92.6561 140.125 93.5151 140 94.3851 139.911C95.2501 139.828 96.1201 139.781 96.9951 139.781C97.8641 139.781 98.7341 139.828 99.6041 139.911C100.469 140 101.333 140.125 102.187 140.296C103.042 140.463 103.885 140.677 104.724 140.932C105.557 141.182 106.375 141.479 107.182 141.812C107.989 142.145 108.776 142.515 109.542 142.927C110.312 143.338 111.062 143.786 111.786 144.27C112.51 144.755 113.208 145.276 113.885 145.828C114.557 146.38 115.203 146.963 115.818 147.583C116.437 148.197 117.021 148.843 117.573 149.515C118.13 150.192 118.646 150.89 119.13 151.614C119.614 152.343 120.062 153.088 120.474 153.859C120.885 154.625 121.255 155.416 121.594 156.218C121.927 157.026 122.219 157.843 122.474 158.682C122.724 159.515 122.937 160.359 123.104 161.213C123.276 162.067 123.406 162.932 123.489 163.796C123.573 164.666 123.62 165.536 123.62 166.406Z" fill="white"/>
</g>
<path d="M113.276 161.708C113.276 170.698 105.995 177.979 97.005 177.979C88.021 177.979 80.735 170.698 80.735 161.708C80.735 152.724 88.021 145.437 97.005 145.437C105.995 145.437 113.276 152.724 113.276 161.708ZM77.083 161.708C77.083 172.713 86.005 181.635 97.005 181.635C108.011 181.635 116.932 172.713 116.932 161.708C116.932 150.708 108.011 141.786 97.005 141.786C86.005 141.786 77.083 150.708 77.083 161.708Z" fill="white"/>
<path d="M107.375 161.708C107.375 167.432 102.734 172.078 97.005 172.078C91.281 172.078 86.641 167.432 86.641 161.708C86.641 155.984 91.281 151.343 97.005 151.343C102.734 151.343 107.375 155.984 107.375 161.708ZM84.312 161.708C84.312 168.718 89.995 174.401 97.005 174.401C104.021 174.401 109.703 168.718 109.703 161.708C109.703 154.697 104.021 149.015 97.005 149.015C89.995 149.015 84.312 154.697 84.312 161.708Z" fill="white"/>
<mask id="mask3_66_1947" style="mask-type:luminance" maskUnits="userSpaceOnUse" x="24" y="89" width="146" height="146">
<path d="M24.4219 89.125H169.42V234.125H24.4219V89.125Z" fill="white"/>
</mask>
<g mask="url(#mask3_66_1947)">
<path d="M88.589 189.77C88.047 190.312 88.047 191.197 88.589 191.739C89.135 192.286 90.016 192.286 90.557 191.739C91.057 191.239 91.099 190.458 90.682 189.911L95.448 185.145V181.051H95.078V184.989L90.417 189.65C89.87 189.229 89.089 189.27 88.589 189.77ZM93.813 210.89V190.244L99 185.057V181.051H98.443V184.827L93.255 190.015V211.119L96.818 214.682V230.124C95.797 230.26 95.01 231.13 95.01 232.192C95.01 233.343 95.943 234.281 97.099 234.281C98.25 234.281 99.188 233.343 99.188 232.192C99.188 231.13 98.396 230.26 97.375 230.124V214.452L93.813 210.89ZM87.031 224.749C87.031 223.749 87.844 222.937 88.844 222.937C89.844 222.937 90.656 223.749 90.656 224.749C90.656 225.749 89.844 226.562 88.844 226.562C87.844 226.562 87.031 225.749 87.031 224.749ZM91.208 224.749C91.208 223.536 90.297 222.536 89.12 222.4V202.801L85.354 199.031V189.135L91.901 182.588V177.156C91.714 177.098 91.526 177.036 91.344 176.963V182.359L84.797 188.9V199.26L88.568 203.031V222.4C87.391 222.536 86.474 223.536 86.474 224.749C86.474 226.051 87.536 227.119 88.844 227.119C90.151 227.119 91.208 226.051 91.208 224.749ZM77.641 195.9C77.641 195.197 77.109 194.614 76.432 194.52V187.676L81.682 182.426L81.307 182.27L76.063 187.52V194.52C75.38 194.614 74.854 195.197 74.854 195.9C74.854 196.671 75.474 197.296 76.245 197.296C77.016 197.296 77.641 196.671 77.641 195.9ZM96.359 192.046V199.708C95.677 199.801 95.151 200.385 95.151 201.088C95.151 201.859 95.776 202.484 96.547 202.484C97.318 202.484 97.938 201.859 97.938 201.088C97.938 200.385 97.411 199.801 96.729 199.708V192.202L102.182 186.749V181.051H101.813V186.593L96.359 192.046ZM74.536 211.567L79.552 206.551V187.588L85.047 182.093V174.213H86.599C86.38 174.031 86.172 173.848 85.964 173.656H85.047V172.739C84.859 172.531 84.672 172.322 84.495 172.109V173.656H76.625L71.125 179.15H52.167L47.151 184.166C46.333 183.541 45.156 183.598 44.406 184.348C43.594 185.166 43.594 186.489 44.406 187.307C45.224 188.119 46.547 188.119 47.365 187.307C48.109 186.557 48.172 185.38 47.547 184.562L52.396 179.708H71.359L76.854 174.213H84.495V181.864L78.995 187.359V206.322L74.146 211.171C73.323 210.546 72.151 210.604 71.401 211.354C70.583 212.171 70.583 213.494 71.401 214.307C72.219 215.124 73.542 215.124 74.354 214.307C75.104 213.562 75.167 212.385 74.536 211.567ZM121.307 117.166L117.281 121.192V132.244L112.276 137.249L112.833 137.479L117.833 132.479V121.421L121.698 117.557C122.521 118.187 123.693 118.124 124.443 117.374C125.26 116.562 125.26 115.239 124.443 114.421C123.63 113.604 122.302 113.604 121.49 114.421C120.74 115.171 120.682 116.343 121.307 117.166ZM160.05 155.359C161.05 155.359 161.86 156.171 161.86 157.171C161.86 158.171 161.05 158.984 160.05 158.984C159.05 158.984 158.23 158.171 158.23 157.171C158.23 156.171 159.05 155.359 160.05 155.359ZM125.682 153.468L129.667 157.447H157.7C157.83 158.624 158.83 159.536 160.05 159.536C161.35 159.536 162.42 158.479 162.42 157.171C162.42 155.864 161.35 154.801 160.05 154.801C158.83 154.801 157.83 155.718 157.7 156.895H129.896L125.917 152.911H110.693C110.807 153.093 110.922 153.275 111.036 153.468H125.682ZM112.276 186.171L117.281 191.171V202.229L121.307 206.255C120.682 207.072 120.74 208.249 121.49 208.999C122.302 209.812 123.63 209.812 124.443 208.999C125.26 208.182 125.26 206.859 124.443 206.041C123.693 205.291 122.521 205.234 121.698 205.859L117.833 201.999V190.942L112.833 185.937L112.276 186.171ZM138.036 174.598L136.839 175.796H123.526L117.969 170.239H110.865C110.786 170.364 110.703 170.489 110.625 170.609H117.818L123.375 176.166H136.995L138.302 174.859C138.844 175.275 139.63 175.239 140.13 174.739C140.672 174.192 140.672 173.312 140.13 172.765C139.583 172.223 138.703 172.223 138.161 172.765C137.661 173.265 137.62 174.051 138.036 174.598ZM165.42 161.327H149.75L146.188 164.895H125.542L120.354 159.708H116.349V160.26H120.125L125.313 165.447H146.417L149.984 161.885H165.42C165.56 162.906 166.43 163.697 167.49 163.697C168.64 163.697 169.58 162.76 169.58 161.609C169.58 160.452 168.64 159.515 167.49 159.515C166.43 159.515 165.56 160.307 165.42 161.327ZM117.724 177.025L117.573 177.395L122.818 182.645H129.818C129.911 183.327 130.495 183.854 131.198 183.854C131.969 183.854 132.594 183.229 132.594 182.458C132.594 181.692 131.969 181.067 131.198 181.067C130.495 181.067 129.911 181.593 129.818 182.275H122.974L117.724 177.025ZM151.552 169.864C151.552 170.859 150.74 171.671 149.74 171.671C148.74 171.671 147.927 170.859 147.927 169.864C147.927 168.864 148.74 168.051 149.74 168.051C150.74 168.051 151.552 168.864 151.552 169.864ZM147.391 169.583H138.099L134.328 173.354H124.432L117.885 166.807H116.349V167.364H117.656L124.203 173.906H134.563L138.328 170.14H147.391C147.531 171.312 148.531 172.229 149.74 172.229C151.047 172.229 152.109 171.166 152.109 169.864C152.109 168.557 151.047 167.494 149.74 167.494C148.531 167.494 147.531 168.411 147.391 169.583ZM103.344 214.442C103.344 215.442 102.531 216.255 101.536 216.255C100.536 216.255 99.724 215.442 99.724 214.442C99.724 213.442 100.536 212.63 101.536 212.63C102.531 212.63 103.344 213.442 103.344 214.442ZM105.797 190.614V175.4C105.609 175.52 105.427 175.63 105.24 175.744V190.385L101.255 194.369V212.093C100.083 212.229 99.167 213.234 99.167 214.442C99.167 215.749 100.229 216.812 101.536 216.812C102.839 216.812 103.901 215.749 103.901 214.442C103.901 213.234 102.984 212.229 101.813 212.093V194.598L105.797 190.614ZM110.599 205.968C110.599 206.635 110.057 207.176 109.391 207.176C108.729 207.176 108.188 206.635 108.188 205.968C108.188 205.301 108.729 204.76 109.391 204.76C110.057 204.76 110.599 205.301 110.599 205.968ZM109.224 173.656V172.452C109.104 172.588 108.979 172.723 108.854 172.859V173.656H108.047C107.844 173.848 107.635 174.031 107.417 174.213H108.854V186.749L112.896 190.791V197.713L109.208 201.4V204.4C108.427 204.494 107.813 205.161 107.813 205.968C107.813 206.838 108.521 207.546 109.391 207.546C110.26 207.546 110.969 206.838 110.969 205.968C110.969 205.161 110.359 204.494 109.578 204.4V201.551L113.266 197.864V190.64L109.224 186.593V174.213H117.161L122.656 179.708H141.62L146.469 184.562C145.844 185.38 145.901 186.557 146.651 187.307C147.469 188.119 148.792 188.119 149.609 187.307C150.422 186.489 150.422 185.166 149.609 184.348C148.859 183.598 147.682 183.541 146.865 184.166L141.849 179.15H122.891L117.391 173.656H109.224ZM141.161 137.005L137.297 140.869H126.24L121.24 145.874L121.469 146.426L126.469 141.426H137.526L141.552 137.4C142.37 138.025 143.547 137.968 144.297 137.218C145.109 136.4 145.109 135.077 144.297 134.26C143.479 133.447 142.156 133.447 141.339 134.26C140.594 135.01 140.531 136.187 141.161 137.005ZM83.391 170.609C83.307 170.489 83.229 170.364 83.151 170.239H76.042L70.49 175.796H57.177L55.979 174.598C56.396 174.051 56.354 173.265 55.854 172.765C55.313 172.223 54.427 172.223 53.885 172.765C53.339 173.312 53.339 174.192 53.885 174.739C54.385 175.239 55.167 175.275 55.714 174.859L57.021 176.166H70.641L76.198 170.609H83.391ZM141.266 148.104C141.932 148.104 142.474 148.645 142.474 149.312C142.474 149.979 141.932 150.52 141.266 150.52C140.599 150.52 140.057 149.979 140.057 149.312C140.057 148.645 140.599 148.104 141.266 148.104ZM108.188 117.447C108.188 116.786 108.729 116.244 109.391 116.244C110.057 116.244 110.599 116.786 110.599 117.447C110.599 118.114 110.057 118.656 109.391 118.656C108.729 118.656 108.188 118.114 108.188 117.447ZM109.224 149.479V136.822L113.266 132.781V125.551L109.578 121.864V119.015C110.359 118.926 110.969 118.26 110.969 117.447C110.969 116.583 110.26 115.869 109.391 115.869C108.521 115.869 107.813 116.583 107.813 117.447C107.813 118.26 108.427 118.926 109.208 119.015V122.015L112.896 125.708V132.624L108.854 136.671V149.479H107.734C107.875 149.604 108.01 149.723 108.141 149.854H108.854V150.562C108.979 150.697 109.104 150.827 109.224 150.968V149.854H122.047L126.089 145.807H133.01L136.698 149.499H139.698C139.792 150.281 140.458 150.89 141.266 150.89C142.135 150.89 142.844 150.182 142.844 149.312C142.844 148.442 142.135 147.734 141.266 147.734C140.458 147.734 139.792 148.343 139.698 149.13H136.854L133.161 145.437H125.938L121.896 149.479H109.224ZM62.813 181.067C62.047 181.067 61.422 181.692 61.422 182.458C61.422 183.229 62.047 183.854 62.813 183.854C63.521 183.854 64.104 183.327 64.193 182.645H71.193L76.443 177.395L76.292 177.025L71.042 182.275H64.193C64.104 181.593 63.521 181.067 62.813 181.067ZM73.573 163.255L68.807 168.025C68.26 167.604 67.474 167.645 66.979 168.145C66.432 168.687 66.432 169.572 66.979 170.114C67.521 170.661 68.401 170.661 68.948 170.114C69.448 169.614 69.484 168.833 69.068 168.286L73.729 163.63H78.13V163.255H73.573ZM71.969 156.52L66.516 161.973H59.005C58.917 161.291 58.333 160.765 57.625 160.765C56.859 160.765 56.234 161.39 56.234 162.161C56.234 162.926 56.859 163.551 57.625 163.551C58.333 163.551 58.917 163.025 59.005 162.343H66.667L72.12 156.89H78.13V156.52H71.969ZM82.911 188.229L88.464 182.671V175.557C88.339 175.479 88.219 175.4 88.094 175.322V182.52L82.536 188.077V201.697L83.844 203.005C83.427 203.551 83.469 204.333 83.969 204.833C84.51 205.374 85.396 205.374 85.938 204.833C86.479 204.286 86.479 203.406 85.938 202.864C85.438 202.364 84.656 202.322 84.109 202.739L82.911 201.541V188.229ZM85.938 120.557C86.479 120.015 86.479 119.13 85.938 118.588C85.396 118.041 84.51 118.041 83.969 118.588C83.469 119.088 83.427 119.869 83.844 120.416L82.536 121.723V135.343L88.094 140.9V148.098C88.219 148.02 88.339 147.937 88.464 147.859V140.744L82.911 135.187V121.88L84.109 120.676C84.656 121.098 85.438 121.057 85.938 120.557ZM95.078 142.249H95.448V138.275L90.682 133.51C91.099 132.963 91.057 132.176 90.557 131.676C90.016 131.135 89.135 131.135 88.589 131.676C88.047 132.223 88.047 133.104 88.589 133.65C89.089 134.145 89.87 134.187 90.417 133.77L95.078 138.426V142.249ZM122.047 156.52H116.349V156.89H121.896L127.344 162.343H135.01C135.099 163.025 135.682 163.551 136.385 163.551C137.156 163.551 137.781 162.926 137.781 162.161C137.781 161.39 137.156 160.765 136.385 160.765C135.682 160.765 135.099 161.291 135.01 161.973H127.5L122.047 156.52ZM96.729 131.218V123.708C97.411 123.619 97.938 123.036 97.938 122.327C97.938 121.562 97.318 120.937 96.547 120.937C95.776 120.937 95.151 121.562 95.151 122.327C95.151 123.036 95.677 123.619 96.359 123.708V131.369L101.813 136.822V145.744H102.182V136.671L96.729 131.218ZM116.349 163.255V163.63H120.286L124.948 168.286C124.531 168.833 124.568 169.614 125.068 170.114C125.609 170.661 126.495 170.661 127.036 170.114C127.583 169.572 127.583 168.687 127.036 168.145C126.536 167.645 125.755 167.604 125.208 168.025L120.443 163.255H116.349ZM72.776 145.874L67.776 140.869H56.719L52.854 137.005C53.484 136.187 53.422 135.01 52.672 134.26C51.859 133.447 50.536 133.447 49.719 134.26C48.901 135.077 48.901 136.4 49.719 137.218C50.469 137.968 51.646 138.025 52.464 137.4L56.49 141.426H67.542L72.547 146.426L72.776 145.874ZM33.969 158.984C32.969 158.984 32.156 158.171 32.156 157.171C32.156 156.171 32.969 155.359 33.969 155.359C34.969 155.359 35.781 156.171 35.781 157.171C35.781 158.171 34.969 158.984 33.969 158.984ZM36.318 156.895C36.177 155.718 35.177 154.801 33.969 154.801C32.661 154.801 31.599 155.864 31.599 157.171C31.599 158.479 32.661 159.536 33.969 159.536C35.177 159.536 36.177 158.624 36.318 157.447H64.349L68.328 153.468H82.979C83.089 153.275 83.208 153.093 83.323 152.911H68.099L64.12 156.895H36.318ZM78.13 160.26V159.708H73.656L68.469 164.895H47.828L44.26 161.327H28.594C28.458 160.307 27.583 159.515 26.526 159.515C25.37 159.515 24.438 160.452 24.438 161.609C24.438 162.76 25.37 163.697 26.526 163.697C27.583 163.697 28.458 162.906 28.594 161.885H44.031L47.599 165.447H68.703L73.891 160.26H78.13ZM42.464 169.864C42.464 168.864 43.276 168.051 44.276 168.051C45.276 168.051 46.083 168.864 46.083 169.864C46.083 170.859 45.276 171.671 44.276 171.671C43.276 171.671 42.464 170.859 42.464 169.864ZM46.625 170.14H55.688L59.453 173.906H69.813L76.359 167.364H78.13V166.807H76.13L69.583 173.354H59.682L55.917 169.583H46.625C46.484 168.411 45.484 167.494 44.276 167.494C42.969 167.494 41.906 168.557 41.906 169.864C41.906 171.166 42.969 172.229 44.276 172.229C45.484 172.229 46.484 171.312 46.625 170.14ZM88.844 96.8588C89.844 96.8588 90.656 97.6708 90.656 98.6708C90.656 99.6708 89.844 100.484 88.844 100.484C87.844 100.484 87.031 99.6708 87.031 98.6708C87.031 97.6708 87.844 96.8588 88.844 96.8588ZM88.568 101.02V120.39L84.797 124.156V134.515L91.344 141.062V146.452C91.526 146.385 91.714 146.322 91.901 146.26V140.833L85.354 134.286V124.385L89.12 120.619V101.02C90.297 100.88 91.208 99.8798 91.208 98.6708C91.208 97.3638 90.151 96.3008 88.844 96.3008C87.536 96.3008 86.474 97.3638 86.474 98.6708C86.474 99.8798 87.391 100.88 88.568 101.02ZM81.307 141.145L81.682 140.994L76.432 135.744V128.895C77.109 128.807 77.641 128.223 77.641 127.515C77.641 126.749 77.016 126.124 76.245 126.124C75.474 126.124 74.854 126.749 74.854 127.515C74.854 128.223 75.38 128.807 76.063 128.895V135.895L81.307 141.145ZM95.01 91.2288C95.01 92.2858 95.797 93.1608 96.818 93.2958V108.734L93.255 112.296V133.4L98.443 138.588V142.249H99V138.359L93.813 133.171V112.531L97.375 108.963V93.2958C98.396 93.1608 99.188 92.2858 99.188 91.2288C99.188 90.0718 98.25 89.1348 97.099 89.1348C95.943 89.1348 95.01 90.0718 95.01 91.2288ZM103.344 108.979C103.344 109.973 102.531 110.786 101.536 110.786C100.536 110.786 99.724 109.973 99.724 108.979C99.724 107.979 100.536 107.161 101.536 107.161C102.531 107.161 103.344 107.979 103.344 108.979ZM99.167 108.979C99.167 110.187 100.083 111.187 101.255 111.327V129.051L105.24 133.031V147.676C105.427 147.786 105.609 147.9 105.797 148.02V132.801L101.813 128.822V111.327C102.984 111.187 103.901 110.187 103.901 108.979C103.901 107.671 102.839 106.609 101.536 106.609C100.229 106.609 99.167 107.671 99.167 108.979ZM52.75 150.52C52.083 150.52 51.542 149.979 51.542 149.312C51.542 148.645 52.083 148.104 52.75 148.104C53.417 148.104 53.958 148.645 53.958 149.312C53.958 149.979 53.417 150.52 52.75 150.52ZM71.969 149.854H84.495V151.312C84.672 151.093 84.859 150.885 85.047 150.676V149.854H85.87C86.005 149.723 86.141 149.604 86.281 149.479H85.047V141.322L79.552 135.827V116.869L74.536 111.854C75.167 111.036 75.104 109.859 74.354 109.109C73.542 108.296 72.219 108.296 71.401 109.109C70.583 109.926 70.583 111.249 71.401 112.067C72.151 112.812 73.323 112.874 74.146 112.249L78.995 117.098V136.057L84.495 141.557V149.479H72.12L68.078 145.437H60.849L57.161 149.13H54.313C54.224 148.343 53.557 147.734 52.75 147.734C51.88 147.734 51.172 148.442 51.172 149.312C51.172 150.182 51.88 150.89 52.75 150.89C53.557 150.89 54.224 150.281 54.313 149.499H57.318L61.005 145.807H67.927L71.969 149.854Z" fill="white"/>
</g>
<path d="M94.5161 172.644H84.2031L82.2241 177.415H76.9531L86.8701 155.186H91.9531L101.891 177.415H96.4951L94.5161 172.644ZM92.8911 168.749L89.3701 160.249L85.8491 168.749H92.8911Z" fill="#2E8FC7"/>
<path d="M104.178 155.186H109.324V177.415H104.178V155.186Z" fill="#2E8FC7"/>
</svg>
