<svg width="513" height="144" viewBox="0 0 513 144" fill="none" xmlns="http://www.w3.org/2000/svg">
<path d="M42.912 71.728C46.496 72.368 49.536 74.256 52.032 77.392C54.528 80.528 55.776 84.08 55.776 88.048C55.776 91.44 54.88 94.512 53.088 97.264C51.36 99.952 48.832 102.096 45.504 103.696C42.176 105.232 38.304 106 33.888 106H7.2V39.28H32.64C37.184 39.28 41.088 40.048 44.352 41.584C47.616 43.12 50.08 45.2 51.744 47.824C53.408 50.384 54.24 53.264 54.24 56.464C54.24 60.304 53.216 63.504 51.168 66.064C49.12 68.624 46.368 70.512 42.912 71.728ZM18.144 67.312H31.68C35.264 67.312 38.048 66.512 40.032 64.912C42.08 63.248 43.104 60.88 43.104 57.808C43.104 54.8 42.08 52.464 40.032 50.8C38.048 49.072 35.264 48.208 31.68 48.208H18.144V67.312ZM32.928 97.072C36.64 97.072 39.552 96.176 41.664 94.384C43.776 92.592 44.832 90.096 44.832 86.896C44.832 83.632 43.712 81.04 41.472 79.12C39.232 77.2 36.256 76.24 32.544 76.24H18.144V97.072H32.928ZM78.6128 34.96V106H67.6688V34.96H78.6128ZM140.885 53.104V106H129.941V99.76C128.213 101.936 125.941 103.664 123.125 104.944C120.373 106.16 117.429 106.768 114.293 106.768C110.133 106.768 106.389 105.904 103.061 104.176C99.7973 102.448 97.2053 99.888 95.2853 96.496C93.4293 93.104 92.5013 89.008 92.5013 84.208V53.104H103.349V82.576C103.349 87.312 104.533 90.96 106.901 93.52C109.269 96.016 112.501 97.264 116.597 97.264C120.693 97.264 123.925 96.016 126.293 93.52C128.725 90.96 129.941 87.312 129.941 82.576V53.104H140.885ZM203.805 78.256C203.805 80.24 203.677 82.032 203.421 83.632H163.005C163.325 87.856 164.893 91.248 167.709 93.808C170.525 96.368 173.981 97.648 178.077 97.648C183.965 97.648 188.125 95.184 190.557 90.256H202.365C200.765 95.12 197.853 99.12 193.629 102.256C189.469 105.328 184.285 106.864 178.077 106.864C173.021 106.864 168.477 105.744 164.445 103.504C160.477 101.2 157.341 98 155.037 93.904C152.797 89.744 151.677 84.944 151.677 79.504C151.677 74.064 152.765 69.296 154.941 65.2C157.181 61.04 160.285 57.84 164.253 55.6C168.285 53.36 172.893 52.24 178.077 52.24C183.069 52.24 187.517 53.328 191.421 55.504C195.325 57.68 198.365 60.752 200.541 64.72C202.717 68.624 203.805 73.136 203.805 78.256ZM192.381 74.8C192.317 70.768 190.877 67.536 188.061 65.104C185.245 62.672 181.757 61.456 177.597 61.456C173.821 61.456 170.589 62.672 167.901 65.104C165.213 67.472 163.613 70.704 163.101 74.8H192.381Z" fill="#103070"/>
<path d="M267.36 61.2C270.827 61.2 273.92 61.92 276.64 63.36C279.413 64.8 281.573 66.9333 283.12 69.76C284.72 72.5867 285.52 76 285.52 80V106H276.48V81.36C276.48 77.4133 275.493 74.4 273.52 72.32C271.547 70.1867 268.853 69.12 265.44 69.12C262.027 69.12 259.307 70.1867 257.28 72.32C255.307 74.4 254.32 77.4133 254.32 81.36V106H245.28V81.36C245.28 77.4133 244.293 74.4 242.32 72.32C240.347 70.1867 237.653 69.12 234.24 69.12C230.827 69.12 228.107 70.1867 226.08 72.32C224.107 74.4 223.12 77.4133 223.12 81.36V106H214V61.92H223.12V66.96C224.613 65.1467 226.507 63.7333 228.8 62.72C231.093 61.7067 233.547 61.2 236.16 61.2C239.68 61.2 242.827 61.9467 245.6 63.44C248.373 64.9333 250.507 67.0933 252 69.92C253.333 67.2533 255.413 65.1467 258.24 63.6C261.067 62 264.107 61.2 267.36 61.2ZM337.525 82.88C337.525 84.5333 337.418 86.0267 337.205 87.36H303.525C303.792 90.88 305.098 93.7067 307.445 95.84C309.792 97.9733 312.672 99.04 316.085 99.04C320.992 99.04 324.458 96.9867 326.485 92.88H336.325C334.992 96.9333 332.565 100.267 329.045 102.88C325.578 105.44 321.258 106.72 316.085 106.72C311.872 106.72 308.085 105.787 304.725 103.92C301.418 102 298.805 99.3333 296.885 95.92C295.018 92.4533 294.085 88.4533 294.085 83.92C294.085 79.3867 294.992 75.4133 296.805 72C298.672 68.5333 301.258 65.8667 304.565 64C307.925 62.1333 311.765 61.2 316.085 61.2C320.245 61.2 323.952 62.1067 327.205 63.92C330.458 65.7333 332.992 68.2933 334.805 71.6C336.618 74.8533 337.525 78.6133 337.525 82.88ZM328.005 80C327.952 76.64 326.752 73.9467 324.405 71.92C322.058 69.8933 319.152 68.88 315.685 68.88C312.538 68.88 309.845 69.8933 307.605 71.92C305.365 73.8933 304.032 76.5867 303.605 80H328.005ZM357.14 69.36V93.76C357.14 95.4133 357.513 96.6133 358.26 97.36C359.06 98.0533 360.393 98.4 362.26 98.4H367.86V106H360.66C356.553 106 353.407 105.04 351.22 103.12C349.033 101.2 347.94 98.08 347.94 93.76V69.36H342.74V61.92H347.94V50.96H357.14V61.92H367.86V69.36H357.14ZM385.386 68.32C386.719 66.08 388.479 64.3467 390.666 63.12C392.906 61.84 395.546 61.2 398.586 61.2V70.64H396.266C392.692 70.64 389.972 71.5467 388.106 73.36C386.292 75.1733 385.386 78.32 385.386 82.8V106H376.266V61.92H385.386V68.32ZM411.609 56.08C409.955 56.08 408.569 55.52 407.449 54.4C406.329 53.28 405.769 51.8933 405.769 50.24C405.769 48.5867 406.329 47.2 407.449 46.08C408.569 44.96 409.955 44.4 411.609 44.4C413.209 44.4 414.569 44.96 415.689 46.08C416.809 47.2 417.369 48.5867 417.369 50.24C417.369 51.8933 416.809 53.28 415.689 54.4C414.569 55.52 413.209 56.08 411.609 56.08ZM416.089 61.92V106H406.969V61.92H416.089ZM425.023 83.92C425.023 79.3867 425.929 75.4133 427.743 72C429.609 68.5333 432.169 65.8667 435.423 64C438.676 62.1333 442.409 61.2 446.623 61.2C451.956 61.2 456.356 62.48 459.823 65.04C463.343 67.5467 465.716 71.1467 466.943 75.84H457.103C456.303 73.6533 455.023 71.9467 453.263 70.72C451.503 69.4933 449.289 68.88 446.623 68.88C442.889 68.88 439.903 70.2133 437.663 72.88C435.476 75.4933 434.383 79.1733 434.383 83.92C434.383 88.6667 435.476 92.3733 437.663 95.04C439.903 97.7067 442.889 99.04 446.623 99.04C451.903 99.04 455.396 96.72 457.103 92.08H466.943C465.663 96.56 463.263 100.133 459.743 102.8C456.223 105.413 451.849 106.72 446.623 106.72C442.409 106.72 438.676 105.787 435.423 103.92C432.169 102 429.609 99.3333 427.743 95.92C425.929 92.4533 425.023 88.4533 425.023 83.92ZM492.031 106.72C488.565 106.72 485.445 106.107 482.671 104.88C479.951 103.6 477.791 101.893 476.191 99.76C474.591 97.5733 473.738 95.1467 473.631 92.48H483.071C483.231 94.3467 484.111 95.92 485.711 97.2C487.365 98.4267 489.418 99.04 491.871 99.04C494.431 99.04 496.405 98.56 497.791 97.6C499.231 96.5867 499.951 95.3067 499.951 93.76C499.951 92.1067 499.151 90.88 497.551 90.08C496.005 89.28 493.525 88.4 490.111 87.44C486.805 86.5333 484.111 85.6533 482.031 84.8C479.951 83.9467 478.138 82.64 476.591 80.88C475.098 79.12 474.351 76.8 474.351 73.92C474.351 71.5733 475.045 69.44 476.431 67.52C477.818 65.5467 479.791 64 482.351 62.88C484.965 61.76 487.951 61.2 491.311 61.2C496.325 61.2 500.351 62.48 503.391 65.04C506.485 67.5467 508.138 70.9867 508.351 75.36H499.231C499.071 73.3867 498.271 71.8133 496.831 70.64C495.391 69.4667 493.445 68.88 490.991 68.88C488.591 68.88 486.751 69.3333 485.471 70.24C484.191 71.1467 483.551 72.3467 483.551 73.84C483.551 75.0133 483.978 76 484.831 76.8C485.685 77.6 486.725 78.24 487.951 78.72C489.178 79.1467 490.991 79.7067 493.391 80.4C496.591 81.2533 499.205 82.1333 501.231 83.04C503.311 83.8933 505.098 85.1733 506.591 86.88C508.085 88.5867 508.858 90.8533 508.911 93.68C508.911 96.1867 508.218 98.4267 506.831 100.4C505.445 102.373 503.471 103.92 500.911 105.04C498.405 106.16 495.445 106.72 492.031 106.72Z" fill="#2D91CE"/>
</svg>
